<svg width="19" height="25" viewBox="0 0 19 25" fill="none" xmlns="http://www.w3.org/2000/svg">
<path d="M15.85 0.578125C16.3713 0.578125 16.7567 0.600792 17.006 0.646126C17.278 0.668793 17.5727 0.770792 17.89 0.952124C18.23 1.13346 18.468 1.43946 18.604 1.87012C18.74 2.30079 18.808 2.87879 18.808 3.60412C18.808 4.32946 18.74 4.90746 18.604 5.33812C18.468 5.76879 18.23 6.07479 17.89 6.25612C17.55 6.41479 17.244 6.51679 16.972 6.56213C16.7227 6.58479 16.326 6.59612 15.782 6.59612H5.37799V10.0301H12.076C12.62 10.0301 13.0167 10.0528 13.266 10.0981C13.538 10.1208 13.844 10.2228 14.184 10.4041C14.7733 10.7441 15.068 11.6395 15.068 13.0901C15.068 14.6768 14.6373 15.6175 13.776 15.9121C13.4133 16.0255 12.8353 16.0821 12.042 16.0821H5.37799V22.5081C5.37799 23.0521 5.35532 23.4488 5.30999 23.6981C5.28732 23.9475 5.27247 24.2276 5 24.5001C4.90542 24.5947 3.76923 24.5001 3.35199 24.5001C1.76532 24.5001 0.835985 24.0695 0.563985 23.2081C0.427985 22.8455 0.359985 22.2675 0.359985 21.4741V4.57013C0.359985 3.41412 0.575319 2.63212 1.00599 2.22412C1.43665 1.79346 2.25265 1.57812 3.45399 1.57812L15.85 0.578125Z" fill="white"/>
</svg>
