<svg width="20" height="25" viewBox="0 0 20 25" fill="none" xmlns="http://www.w3.org/2000/svg">
<path d="M16.2536 0.078125C16.7749 0.078125 17.1603 0.100792 17.4096 0.146126C17.6816 0.168793 17.9763 0.270792 18.2936 0.452124C18.6336 0.633458 18.8716 0.939458 19.0076 1.37012C19.1436 1.80079 19.2116 2.37879 19.2116 3.10412C19.2116 3.82946 19.1436 4.40746 19.0076 4.83812C18.8716 5.26879 18.6336 5.57479 18.2936 5.75612C17.9536 5.91479 17.6476 6.01679 17.3756 6.06213C17.1263 6.08479 16.7296 6.09612 16.1856 6.09612H5.78161V9.53013H12.4796C13.0236 9.53013 13.4203 9.55279 13.6696 9.59813C13.9416 9.62079 14.2476 9.72279 14.5876 9.90413C15.1769 10.2441 15.4716 11.1395 15.4716 12.5901C15.4716 14.1768 15.0409 15.1175 14.1796 15.4121C13.8169 15.5255 13.2389 15.5821 12.4456 15.5821H5.78161V22.0081C5.78161 22.5521 5.75894 22.9488 5.71361 23.1981C5.69094 23.4475 5.6761 23.7276 5.40363 24.0001C5.30904 24.0947 4.17286 24.0001 3.75561 24.0001C2.16894 24.0001 1.23961 23.5695 0.967611 22.7081C0.831611 22.3455 0.763611 21.7675 0.763611 20.9741V4.07013C0.763611 2.91412 0.978944 2.13212 1.40961 1.72412C1.84028 1.29346 2.65628 1.07812 3.85761 1.07812L16.2536 0.078125Z" fill="white"/>
</svg>
