<svg width="24" height="24" viewBox="0 0 24 24" fill="none" xmlns="http://www.w3.org/2000/svg">
<g clip-path="url(#clip0_1_224)">
<path d="M23.9998 11.2458C23.8548 8.90616 23.0283 6.6601 21.6223 4.78448C20.2163 2.90885 18.2921 1.48564 16.0871 0.69029C13.882 -0.105063 11.4924 -0.237795 9.21284 0.308455C6.93326 0.854705 4.86335 2.05606 3.25825 3.76443C1.65315 5.4728 0.583035 7.61351 0.179806 9.92268C-0.223422 12.2319 0.0578658 14.6086 0.988995 16.7598C1.92012 18.911 3.4604 20.7428 5.41994 22.0293C7.37949 23.3158 9.67265 24.0008 12.0168 23.9998H18.4998C19.9579 23.9979 21.3558 23.4179 22.3868 22.3868C23.4179 21.3558 23.9979 19.9579 23.9998 18.4998V11.3398V11.2458ZM20.9998 18.4998C20.9998 19.1628 20.7364 19.7987 20.2675 20.2676C19.7987 20.7364 19.1628 20.9998 18.4998 20.9998H12.0168C10.7462 20.999 9.49013 20.7305 8.33035 20.2117C7.17057 19.6929 6.13316 18.9354 5.28577 17.9888C4.43462 17.0428 3.79557 15.9258 3.41148 14.7127C3.02739 13.4995 2.90713 12.2182 3.05877 10.9548C3.29803 8.96296 4.19319 7.10736 5.60321 5.68032C7.01323 4.25328 8.85796 3.33592 10.8468 3.07278C11.2359 3.02422 11.6276 2.99984 12.0198 2.99978C14.1159 2.99378 16.1474 3.72511 17.7588 5.06578C18.6981 5.8461 19.4696 6.80869 20.0267 7.89544C20.5837 8.98219 20.9147 10.1706 20.9998 11.3888V18.4998Z" fill="#374957"/>
<path d="M9.50015 11.0002H12.5002C12.898 11.0002 13.2795 10.8422 13.5608 10.5609C13.8421 10.2796 14.0002 9.89807 14.0002 9.50024C14.0002 9.10242 13.8421 8.72089 13.5608 8.43958C13.2795 8.15828 12.898 8.00024 12.5002 8.00024H9.50015C9.10233 8.00024 8.7208 8.15828 8.43949 8.43958C8.15819 8.72089 8.00015 9.10242 8.00015 9.50024C8.00015 9.89807 8.15819 10.2796 8.43949 10.5609C8.7208 10.8422 9.10233 11.0002 9.50015 11.0002Z" fill="#374957"/>
<path d="M16.5002 12.9998H9.50015C9.10233 12.9998 8.7208 13.1578 8.43949 13.4391C8.15819 13.7204 8.00015 14.1019 8.00015 14.4998C8.00015 14.8976 8.15819 15.2791 8.43949 15.5604C8.7208 15.8417 9.10233 15.9998 9.50015 15.9998H16.5002C16.898 15.9998 17.2795 15.8417 17.5608 15.5604C17.8421 15.2791 18.0002 14.8976 18.0002 14.4998C18.0002 14.1019 17.8421 13.7204 17.5608 13.4391C17.2795 13.1578 16.898 12.9998 16.5002 12.9998Z" fill="#374957"/>
</g>
<defs>
<clipPath id="clip0_1_224">
<rect width="24" height="24" fill="white"/>
</clipPath>
</defs>
</svg>
