<svg width="15" height="14" viewBox="0 0 15 14" fill="none" xmlns="http://www.w3.org/2000/svg">
<g clip-path="url(#clip0_1_250)">
<path d="M4.84103 12.881C4.40455 12.8793 3.97991 12.7532 3.62802 12.521C3.26842 12.2935 3.00008 11.9677 2.86293 11.5921C2.72578 11.2164 2.72715 10.811 2.86682 10.4361L3.53595 8.57482L1.77449 7.41662C1.42131 7.18457 1.1588 6.85801 1.0245 6.48366C0.890212 6.10931 0.891026 5.70635 1.02683 5.33244C1.16263 4.95854 1.42647 4.63283 1.78059 4.40194C2.1347 4.17104 2.56096 4.04679 2.99836 4.04695H5.15443L5.80925 2.21091C5.94364 1.83493 6.20727 1.507 6.56215 1.27436C6.91703 1.04173 7.34486 0.916382 7.78403 0.916382C8.22319 0.916382 8.65102 1.04173 9.00591 1.27436C9.36079 1.507 9.62441 1.83493 9.7588 2.21091V2.21091L10.4159 4.04695H12.572C13.0093 4.0469 13.4355 4.17123 13.7895 4.40217C14.1436 4.6331 14.4073 4.9588 14.543 5.33269C14.6788 5.70657 14.6795 6.10948 14.5452 6.48378C14.4109 6.85808 14.1484 7.18459 13.7953 7.41662L12.0344 8.57482L12.7035 10.4361C12.8384 10.8115 12.8374 11.2157 12.7007 11.5907C12.564 11.9656 12.2985 12.2918 11.9425 12.5225C11.5866 12.7531 11.1584 12.8763 10.7197 12.8743C10.2809 12.8723 9.85421 12.7452 9.50087 12.5112L7.78517 11.3767L6.06947 12.5118C5.71447 12.7499 5.28389 12.8793 4.84103 12.881V12.881ZM2.99836 5.58984C2.92287 5.58983 2.84931 5.61128 2.7882 5.65112C2.72708 5.69097 2.68153 5.74716 2.65806 5.81168C2.63459 5.8762 2.63439 5.94574 2.65751 6.01037C2.68062 6.07499 2.72586 6.13139 2.78676 6.17151L5.0492 7.65834C5.19488 7.75413 5.30326 7.8888 5.35891 8.04319C5.41456 8.19757 5.41465 8.36381 5.35917 8.51824L4.50132 10.9097C4.47751 10.9746 4.47727 11.0446 4.50062 11.1096C4.52397 11.1746 4.56971 11.2312 4.63122 11.2713C4.69273 11.3114 4.76682 11.3328 4.84278 11.3326C4.91874 11.3323 4.99264 11.3103 5.05377 11.2697L7.2779 9.79833C7.42524 9.70083 7.60338 9.64824 7.78631 9.64824C7.96925 9.64824 8.14739 9.70083 8.29473 9.79833L10.5189 11.2692C10.5799 11.3101 10.6539 11.3325 10.7301 11.3329C10.8062 11.3334 10.8805 11.3119 10.9422 11.2718C11.0038 11.2316 11.0496 11.1747 11.0729 11.1095C11.0961 11.0443 11.0955 10.9741 11.0713 10.9092L10.2135 8.51773C10.158 8.36329 10.1581 8.19706 10.2137 8.04267C10.2694 7.88829 10.3777 7.75362 10.5234 7.65782L12.7853 6.17099C12.8462 6.1309 12.8914 6.07455 12.9145 6.00998C12.9376 5.9454 12.9375 5.87591 12.9141 5.81141C12.8907 5.74692 12.8452 5.69072 12.7842 5.65084C12.7232 5.61095 12.6497 5.58942 12.5743 5.58932H9.78682C9.60513 5.58928 9.42815 5.53737 9.28138 5.44106C9.1346 5.34475 9.02563 5.20901 8.97015 5.05343L8.12831 2.682C8.10513 2.6171 8.05963 2.56049 7.99837 2.52033C7.93712 2.48017 7.86327 2.45853 7.78746 2.45853C7.71165 2.45853 7.6378 2.48017 7.57655 2.52033C7.51529 2.56049 7.46979 2.6171 7.44661 2.682L6.59848 5.05394C6.54309 5.20928 6.43437 5.34483 6.28794 5.44112C6.14152 5.5374 5.96492 5.58947 5.78352 5.58984H2.99836Z" fill="#B0B4B7"/>
</g>
<defs>
<clipPath id="clip0_1_250">
<rect width="13.7256" height="12.3431" fill="white" transform="translate(0.922363 0.827271)"/>
</clipPath>
</defs>
</svg>
