<svg width="14" height="14" viewBox="0 0 14 14" fill="none" xmlns="http://www.w3.org/2000/svg">
<g clip-path="url(#clip0_1_249)">
<path d="M0.950499 7.20474L2.98647 8.54191L2.21326 10.6953C2.0883 11.0293 2.08672 11.3906 2.20874 11.7255C2.33077 12.0603 2.56986 12.3507 2.89039 12.5534C3.20542 12.7626 3.58719 12.8747 3.9788 12.8729C4.37042 12.8712 4.75092 12.7557 5.06361 12.5437L7.0544 11.226L9.04576 12.5421C9.36022 12.7501 9.73993 12.8631 10.1303 12.8648C10.5207 12.8665 10.9016 12.7569 11.2183 12.5516C11.535 12.3464 11.7711 12.0561 11.8928 11.7226C12.0145 11.389 12.0155 11.0293 11.8955 10.6953L11.1223 8.54191L13.1583 7.20474C13.4723 6.99825 13.7058 6.7078 13.8253 6.37487C13.9448 6.04193 13.9443 5.68355 13.8238 5.3509C13.7033 5.01825 13.469 4.72836 13.1543 4.52263C12.8396 4.3169 12.4607 4.20586 12.0717 4.20536H9.57076L8.81185 2.07823C8.69251 1.7434 8.458 1.45131 8.14214 1.24408C7.82627 1.03684 7.44539 0.925171 7.0544 0.925171C6.66341 0.925171 6.28252 1.03684 5.96666 1.24408C5.6508 1.45131 5.41629 1.7434 5.29695 2.07823L4.53803 4.20536H2.0394C1.65036 4.20586 1.27144 4.3169 0.956778 4.52263C0.642112 4.72836 0.407788 5.01825 0.287278 5.3509C0.166767 5.68355 0.166234 6.04193 0.285754 6.37487C0.405274 6.7078 0.638733 6.99825 0.952787 7.20474H0.950499Z" fill="#FFE605"/>
</g>
<defs>
<clipPath id="clip0_1_249">
<rect width="13.7256" height="12.3431" fill="white" transform="translate(0.191711 0.827271)"/>
</clipPath>
</defs>
</svg>
