<svg width="15" height="14" viewBox="0 0 15 14" fill="none" xmlns="http://www.w3.org/2000/svg">
<g clip-path="url(#clip0_1_247)">
<path d="M1.48938 7.20474L3.52535 8.54191L2.75214 10.6953C2.62718 11.0293 2.6256 11.3906 2.74762 11.7255C2.86965 12.0603 3.10874 12.3507 3.42927 12.5534C3.7443 12.7626 4.12607 12.8747 4.51768 12.8729C4.9093 12.8712 5.2898 12.7557 5.60249 12.5437L7.59328 11.226L9.58464 12.5421C9.8991 12.7501 10.2788 12.8631 10.6692 12.8648C11.0595 12.8665 11.4405 12.7569 11.7572 12.5516C12.0739 12.3464 12.31 12.0561 12.4317 11.7226C12.5534 11.389 12.5544 11.0293 12.4344 10.6953L11.6612 8.54191L13.6972 7.20474C14.0112 6.99825 14.2447 6.7078 14.3642 6.37487C14.4837 6.04193 14.4832 5.68355 14.3627 5.3509C14.2422 5.01825 14.0078 4.72836 13.6932 4.52263C13.3785 4.3169 12.9996 4.20586 12.6106 4.20536H10.1096L9.35073 2.07823C9.23138 1.7434 8.99687 1.45131 8.68101 1.24408C8.36515 1.03684 7.98427 0.925171 7.59328 0.925171C7.20229 0.925171 6.8214 1.03684 6.50554 1.24408C6.18968 1.45131 5.95517 1.7434 5.83583 2.07823L5.07691 4.20536H2.57828C2.18924 4.20586 1.81032 4.3169 1.49566 4.52263C1.18099 4.72836 0.946668 5.01825 0.826157 5.3509C0.705647 5.68355 0.705113 6.04193 0.824633 6.37487C0.944153 6.7078 1.17761 6.99825 1.49167 7.20474H1.48938Z" fill="#FFE605"/>
</g>
<defs>
<clipPath id="clip0_1_247">
<rect width="13.7256" height="12.3431" fill="white" transform="translate(0.730591 0.827271)"/>
</clipPath>
</defs>
</svg>
