<svg width="25" height="25" viewBox="0 0 25 25" fill="none" xmlns="http://www.w3.org/2000/svg">
<g clip-path="url(#clip0_135_5357)">
<path d="M1.82677 12.9003L5.38677 15.5003L4.03477 19.6873C3.81628 20.3367 3.81351 21.0393 4.02688 21.6904C4.24024 22.3415 4.65831 22.9062 5.21877 23.3003C5.76962 23.7071 6.43716 23.925 7.12192 23.9216C7.80668 23.9182 8.47201 23.6936 9.01877 23.2813L12.4998 20.7193L15.9818 23.2783C16.5316 23.6828 17.1956 23.9024 17.8781 23.9058C18.5607 23.9091 19.2268 23.6959 19.7805 23.2968C20.3343 22.8977 20.7473 22.3333 20.9601 21.6848C21.1728 21.0362 21.1745 20.3369 20.9648 19.6873L19.6128 15.5003L23.1728 12.9003C23.7219 12.4988 24.1301 11.9341 24.3391 11.2867C24.5481 10.6393 24.5472 9.94249 24.3364 9.29569C24.1257 8.6489 23.716 8.08523 23.1658 7.68521C22.6156 7.28519 21.953 7.06927 21.2728 7.06831H16.8998L15.5728 2.93231C15.3641 2.28126 14.954 1.71332 14.4017 1.31037C13.8494 0.907422 13.1834 0.690292 12.4998 0.690292C11.8161 0.690292 11.1501 0.907422 10.5978 1.31037C10.0455 1.71332 9.63544 2.28126 9.42677 2.93231L8.09977 7.06831H3.73077C3.05051 7.06927 2.38796 7.28519 1.83775 7.68521C1.28753 8.08523 0.877806 8.6489 0.667087 9.29569C0.456368 9.94249 0.455435 10.6393 0.664422 11.2867C0.87341 11.9341 1.28163 12.4988 1.83077 12.9003H1.82677Z" fill="#FFE605"/>
</g>
<defs>
<clipPath id="clip0_135_5357">
<rect width="24" height="24" fill="white" transform="translate(0.5 0.5)"/>
</clipPath>
</defs>
</svg>
