<svg width="25" height="24" viewBox="0 0 25 24" fill="none" xmlns="http://www.w3.org/2000/svg">
<g clip-path="url(#clip0_135_5361)">
<path d="M18 1.91653C16.8739 1.93405 15.7724 2.24839 14.8067 2.82781C13.841 3.40722 13.0453 4.2312 12.5 5.21653C11.9546 4.2312 11.1589 3.40722 10.1932 2.82781C9.2275 2.24839 8.12601 1.93405 6.99996 1.91653C5.2049 1.99453 3.51366 2.77979 2.29574 4.10077C1.07782 5.42175 0.432208 7.17106 0.499958 8.96653C0.499958 13.5135 5.28596 18.4795 9.29996 21.8465C10.1962 22.5997 11.3293 23.0126 12.5 23.0126C13.6706 23.0126 14.8037 22.5997 15.7 21.8465C19.714 18.4795 24.5 13.5135 24.5 8.96653C24.5677 7.17106 23.9221 5.42175 22.7042 4.10077C21.4863 2.77979 19.795 1.99453 18 1.91653Z" fill="white"/>
</g>
<defs>
<clipPath id="clip0_135_5361">
<rect width="24" height="24" fill="white" transform="translate(0.5)"/>
</clipPath>
</defs>
</svg>
