<svg width="14" height="14" viewBox="0 0 14 14" fill="none" xmlns="http://www.w3.org/2000/svg">
<g clip-path="url(#clip0_1_245)">
<path d="M0.758788 7.20474L2.79475 8.54191L2.02154 10.6953C1.89659 11.0293 1.89501 11.3906 2.01703 11.7255C2.13906 12.0603 2.37815 12.3507 2.69868 12.5534C3.01371 12.7626 3.39548 12.8747 3.78709 12.8729C4.17871 12.8712 4.55921 12.7557 4.8719 12.5437L6.86269 11.226L8.85404 12.5421C9.16851 12.7501 9.54822 12.8631 9.93858 12.8648C10.3289 12.8665 10.7099 12.7569 11.0266 12.5516C11.3433 12.3464 11.5794 12.0561 11.7011 11.7226C11.8228 11.389 11.8238 11.0293 11.7038 10.6953L10.9306 8.54191L12.9666 7.20474C13.2806 6.99825 13.5141 6.7078 13.6336 6.37487C13.7531 6.04193 13.7526 5.68355 13.6321 5.3509C13.5116 5.01825 13.2773 4.72836 12.9626 4.52263C12.6479 4.3169 12.269 4.20586 11.88 4.20536H9.37905L8.62014 2.07823C8.50079 1.7434 8.26628 1.45131 7.95042 1.24408C7.63456 1.03684 7.25368 0.925171 6.86269 0.925171C6.4717 0.925171 6.09081 1.03684 5.77495 1.24408C5.45909 1.45131 5.22458 1.7434 5.10523 2.07823L4.34632 4.20536H1.84769C1.45865 4.20586 1.07973 4.3169 0.765067 4.52263C0.4504 4.72836 0.216077 5.01825 0.0955664 5.3509C-0.0249442 5.68355 -0.0254776 6.04193 0.0940424 6.37487C0.213562 6.7078 0.447022 6.99825 0.761075 7.20474H0.758788Z" fill="#FFE605"/>
</g>
<defs>
<clipPath id="clip0_1_245">
<rect width="13.7256" height="12.3431" fill="white" transform="translate(0 0.827271)"/>
</clipPath>
</defs>
</svg>
