<svg width="25" height="25" viewBox="0 0 25 25" fill="none" xmlns="http://www.w3.org/2000/svg">
<g clip-path="url(#clip0_135_5327)">
<path d="M1.8268 12.9003L5.3868 15.5003L4.0348 19.6873C3.81631 20.3367 3.81354 21.0393 4.02691 21.6904C4.24027 22.3415 4.65834 22.9062 5.2188 23.3003C5.76965 23.7071 6.43719 23.925 7.12195 23.9216C7.80671 23.9182 8.47204 23.6936 9.0188 23.2813L12.4998 20.7193L15.9818 23.2783C16.5317 23.6828 17.1956 23.9024 17.8782 23.9058C18.5607 23.9091 19.2268 23.6959 19.7806 23.2968C20.3343 22.8977 20.7473 22.3333 20.9601 21.6848C21.1729 21.0362 21.1745 20.3369 20.9648 19.6873L19.6128 15.5003L23.1728 12.9003C23.7219 12.4988 24.1302 11.9341 24.3391 11.2867C24.5481 10.6393 24.5472 9.94249 24.3365 9.29569C24.1258 8.6489 23.716 8.08523 23.1658 7.68521C22.6156 7.28519 21.9531 7.06927 21.2728 7.06831H16.8998L15.5728 2.93231C15.3641 2.28126 14.9541 1.71332 14.4018 1.31037C13.8495 0.907422 13.1835 0.690292 12.4998 0.690292C11.8161 0.690292 11.1501 0.907422 10.5978 1.31037C10.0455 1.71332 9.63548 2.28126 9.4268 2.93231L8.0998 7.06831H3.7308C3.05054 7.06927 2.38799 7.28519 1.83778 7.68521C1.28756 8.08523 0.877837 8.6489 0.667118 9.29569C0.456398 9.94249 0.455466 10.6393 0.664453 11.2867C0.87344 11.9341 1.28166 12.4988 1.8308 12.9003H1.8268Z" fill="#FFE605"/>
</g>
<defs>
<clipPath id="clip0_135_5327">
<rect width="24" height="24" fill="white" transform="translate(0.5 0.5)"/>
</clipPath>
</defs>
</svg>
