<svg width="15" height="14" viewBox="0 0 15 14" fill="none" xmlns="http://www.w3.org/2000/svg">
<g clip-path="url(#clip0_1_248)">
<path d="M1.21997 7.20474L3.25594 8.54191L2.48273 10.6953C2.35777 11.0293 2.35619 11.3906 2.47821 11.7255C2.60024 12.0603 2.83933 12.3507 3.15986 12.5534C3.47489 12.7626 3.85666 12.8747 4.24827 12.8729C4.63989 12.8712 5.02039 12.7557 5.33308 12.5437L7.32387 11.226L9.31523 12.5421C9.62969 12.7501 10.0094 12.8631 10.3998 12.8648C10.7901 12.8665 11.171 12.7569 11.4877 12.5516C11.8044 12.3464 12.0406 12.0561 12.1623 11.7226C12.284 11.389 12.2849 11.0293 12.165 10.6953L11.3918 8.54191L13.4278 7.20474C13.7418 6.99825 13.9753 6.7078 14.0948 6.37487C14.2143 6.04193 14.2138 5.68355 14.0933 5.3509C13.9728 5.01825 13.7384 4.72836 13.4238 4.52263C13.1091 4.3169 12.7302 4.20586 12.3412 4.20536H9.84023L9.08132 2.07823C8.96198 1.7434 8.72747 1.45131 8.41161 1.24408C8.09575 1.03684 7.71486 0.925171 7.32387 0.925171C6.93288 0.925171 6.55199 1.03684 6.23613 1.24408C5.92027 1.45131 5.68576 1.7434 5.56642 2.07823L4.8075 4.20536H2.30887C1.91983 4.20586 1.54092 4.3169 1.22625 4.52263C0.911582 4.72836 0.677259 5.01825 0.556748 5.3509C0.436237 5.68355 0.435704 6.04193 0.555224 6.37487C0.674744 6.7078 0.908204 6.99825 1.22226 7.20474H1.21997Z" fill="#FFE605"/>
</g>
<defs>
<clipPath id="clip0_1_248">
<rect width="13.7256" height="12.3431" fill="white" transform="translate(0.461182 0.827271)"/>
</clipPath>
</defs>
</svg>
