<svg width="82" height="13" viewBox="0 0 82 13" fill="none" xmlns="http://www.w3.org/2000/svg">
<g clip-path="url(#clip0_1_262)">
<path d="M0.665597 6.37747L2.45147 7.71464L1.77324 9.868C1.66364 10.202 1.66225 10.5633 1.76928 10.8982C1.87632 11.233 2.08604 11.5235 2.36719 11.7262C2.64353 11.9354 2.9784 12.0474 3.32191 12.0457C3.66542 12.0439 3.99918 11.9284 4.27346 11.7164L6.01971 10.3988L7.76646 11.7148C8.04229 11.9229 8.37536 12.0358 8.71777 12.0375C9.06018 12.0393 9.39431 11.9296 9.67211 11.7244C9.94991 11.5191 10.1571 11.2289 10.2638 10.8953C10.3706 10.5617 10.3714 10.2021 10.2662 9.868L9.58795 7.71464L11.3738 6.37747C11.6493 6.17098 11.8541 5.88053 11.9589 5.5476C12.0638 5.21466 12.0633 4.85628 11.9576 4.52363C11.8519 4.19098 11.6463 3.90109 11.3703 3.69536C11.0943 3.48963 10.7619 3.37859 10.4207 3.37809H8.22697L7.56128 1.25096C7.4566 0.916132 7.25089 0.62404 6.97383 0.416805C6.69677 0.209569 6.36267 0.0979004 6.01971 0.0979004C5.67675 0.0979004 5.34265 0.209569 5.06559 0.416805C4.78853 0.62404 4.58282 0.916132 4.47814 1.25096L3.81245 3.37809H1.62074C1.27949 3.37859 0.947118 3.48963 0.671105 3.69536C0.395091 3.90109 0.189551 4.19098 0.0838436 4.52363C-0.0218638 4.85628 -0.0223317 5.21466 0.0825068 5.5476C0.187345 5.88053 0.392127 6.17098 0.667603 6.37747H0.665597Z" fill="#FFE605"/>
</g>
<g clip-path="url(#clip1_1_262)">
<path d="M17.9725 6.37747L19.7584 7.71464L19.0802 9.868C18.9706 10.202 18.9692 10.5633 19.0762 10.8982C19.1832 11.233 19.393 11.5235 19.6741 11.7262C19.9505 11.9354 20.2853 12.0474 20.6288 12.0457C20.9723 12.0439 21.3061 11.9284 21.5804 11.7164L23.3266 10.3988L25.0734 11.7148C25.3492 11.9229 25.6823 12.0358 26.0247 12.0375C26.3671 12.0393 26.7012 11.9296 26.979 11.7244C27.2568 11.5191 27.464 11.2289 27.5707 10.8953C27.6775 10.5617 27.6783 10.2021 27.5731 9.868L26.8949 7.71464L28.6807 6.37747C28.9562 6.17098 29.161 5.88053 29.2658 5.5476C29.3707 5.21466 29.3702 4.85628 29.2645 4.52363C29.1588 4.19098 28.9533 3.90109 28.6772 3.69536C28.4012 3.48963 28.0689 3.37859 27.7276 3.37809H25.5339L24.8682 1.25096C24.7635 0.916132 24.5578 0.62404 24.2808 0.416805C24.0037 0.209569 23.6696 0.0979004 23.3266 0.0979004C22.9837 0.0979004 22.6496 0.209569 22.3725 0.416805C22.0954 0.62404 21.8897 0.916132 21.7851 1.25096L21.1194 3.37809H18.9277C18.5864 3.37859 18.254 3.48963 17.978 3.69536C17.702 3.90109 17.4965 4.19098 17.3908 4.52363C17.2851 4.85628 17.2846 5.21466 17.3894 5.5476C17.4943 5.88053 17.6991 6.17098 17.9745 6.37747H17.9725Z" fill="#FFE605"/>
</g>
<g clip-path="url(#clip2_1_262)">
<path d="M35.2795 6.37747L37.0653 7.71464L36.3871 9.868C36.2775 10.202 36.2761 10.5633 36.3832 10.8982C36.4902 11.233 36.6999 11.5235 36.9811 11.7262C37.2574 11.9354 37.5923 12.0474 37.9358 12.0457C38.2793 12.0439 38.6131 11.9284 38.8873 11.7164L40.6336 10.3988L42.3803 11.7148C42.6562 11.9229 42.9892 12.0358 43.3316 12.0375C43.6741 12.0393 44.0082 11.9296 44.286 11.7244C44.5638 11.5191 44.7709 11.2289 44.8777 10.8953C44.9844 10.5617 44.9853 10.2021 44.88 9.868L44.2018 7.71464L45.9877 6.37747C46.2632 6.17098 46.4679 5.88053 46.5728 5.5476C46.6776 5.21466 46.6772 4.85628 46.5714 4.52363C46.4657 4.19098 46.2602 3.90109 45.9842 3.69536C45.7082 3.48963 45.3758 3.37859 45.0346 3.37809H42.8408L42.1751 1.25096C42.0705 0.916132 41.8648 0.62404 41.5877 0.416805C41.3106 0.209569 40.9765 0.0979004 40.6336 0.0979004C40.2906 0.0979004 39.9565 0.209569 39.6795 0.416805C39.4024 0.62404 39.1967 0.916132 39.092 1.25096L38.4263 3.37809H36.2346C35.8934 3.37859 35.561 3.48963 35.285 3.69536C35.009 3.90109 34.8034 4.19098 34.6977 4.52363C34.592 4.85628 34.5915 5.21466 34.6964 5.5476C34.8012 5.88053 35.006 6.17098 35.2815 6.37747H35.2795Z" fill="#FFE605"/>
</g>
<g clip-path="url(#clip3_1_262)">
<path d="M56.1106 12.0538C55.7277 12.052 55.3553 11.926 55.0466 11.6937C54.7312 11.4663 54.4958 11.1404 54.3755 10.7648C54.2552 10.3891 54.2564 9.98369 54.3789 9.60878L54.9658 7.74755L53.4208 6.58935C53.111 6.3573 52.8807 6.03074 52.7629 5.65639C52.6451 5.28204 52.6458 4.87908 52.7649 4.50517C52.8841 4.13126 53.1155 3.80556 53.4261 3.57467C53.7367 3.34377 54.1106 3.21952 54.4943 3.21968H56.3855L56.9599 1.38364C57.0778 1.00765 57.309 0.679731 57.6203 0.447093C57.9316 0.214456 58.3069 0.0891113 58.6921 0.0891113C59.0773 0.0891113 59.4526 0.214456 59.7639 0.447093C60.0752 0.679731 60.3064 1.00765 60.4243 1.38364V1.38364L61.0007 3.21968H62.8919C63.2755 3.21963 63.6494 3.34396 63.9599 3.57489C64.2704 3.80583 64.5018 4.13153 64.6208 4.50542C64.7399 4.8793 64.7406 5.28221 64.6228 5.65651C64.505 6.03081 64.2747 6.35732 63.9649 6.58935L62.4204 7.74755L63.0073 9.60878C63.1256 9.98423 63.1248 10.3885 63.0048 10.7634C62.8849 11.1383 62.652 11.4645 62.3398 11.6952C62.0275 11.9258 61.652 12.049 61.2671 12.047C60.8823 12.045 60.508 11.9179 60.198 11.684L58.6931 10.5494L57.1881 11.6845C56.8768 11.9226 56.4991 12.052 56.1106 12.0538V12.0538ZM54.4943 4.76257C54.4281 4.76256 54.3635 4.78401 54.3099 4.82385C54.2563 4.8637 54.2164 4.91989 54.1958 4.98441C54.1752 5.04893 54.175 5.11847 54.1953 5.1831C54.2156 5.24772 54.2553 5.30412 54.3087 5.34424L56.2932 6.83107C56.421 6.92686 56.5161 7.06153 56.5649 7.21592C56.6137 7.3703 56.6138 7.53654 56.5651 7.69097L55.8126 10.0825C55.7917 10.1473 55.7915 10.2173 55.812 10.2823C55.8325 10.3473 55.8726 10.404 55.9266 10.444C55.9805 10.4841 56.0455 10.5056 56.1121 10.5053C56.1788 10.505 56.2436 10.483 56.2972 10.4425L58.2481 8.97106C58.3774 8.87356 58.5336 8.82097 58.6941 8.82097C58.8546 8.82097 59.0108 8.87356 59.1401 8.97106L61.091 10.4419C61.1445 10.4829 61.2094 10.5052 61.2762 10.5056C61.343 10.5061 61.4082 10.4847 61.4623 10.4445C61.5164 10.4043 61.5566 10.3475 61.5769 10.2823C61.5973 10.217 61.5968 10.1469 61.5756 10.0819L60.8231 7.69046C60.7744 7.53602 60.7745 7.36979 60.8233 7.2154C60.8721 7.06102 60.9672 6.92635 61.095 6.83055L63.079 5.34372C63.1324 5.30363 63.1721 5.24728 63.1924 5.18271C63.2126 5.11813 63.2125 5.04864 63.192 4.98414C63.1715 4.91965 63.1316 4.86345 63.0781 4.82357C63.0245 4.78368 62.9601 4.76215 62.8939 4.76205H60.4489C60.2895 4.76201 60.1343 4.7101 60.0055 4.61379C59.8768 4.51747 59.7812 4.38174 59.7325 4.22616L58.9941 1.85473C58.9737 1.78983 58.9338 1.73322 58.8801 1.69306C58.8264 1.65289 58.7616 1.63126 58.6951 1.63126C58.6286 1.63126 58.5638 1.65289 58.5101 1.69306C58.4564 1.73322 58.4165 1.78983 58.3961 1.85473L57.6522 4.22667C57.6036 4.38201 57.5082 4.51756 57.3798 4.61385C57.2513 4.71013 57.0964 4.7622 56.9373 4.76257H54.4943Z" fill="#B0B4B7"/>
</g>
<g clip-path="url(#clip4_1_262)">
<path d="M72.665 12.0538C72.2822 12.052 71.9097 11.926 71.601 11.6937C71.2856 11.4663 71.0502 11.1404 70.9299 10.7648C70.8096 10.3891 70.8108 9.98369 70.9333 9.60878L71.5203 7.74755L69.9752 6.58935C69.6654 6.3573 69.4351 6.03074 69.3173 5.65639C69.1995 5.28204 69.2003 4.87908 69.3194 4.50517C69.4385 4.13126 69.6699 3.80556 69.9805 3.57467C70.2912 3.34377 70.6651 3.21952 71.0487 3.21968H72.9399L73.5143 1.38364C73.6322 1.00765 73.8635 0.679731 74.1748 0.447093C74.486 0.214456 74.8613 0.0891113 75.2465 0.0891113C75.6318 0.0891113 76.007 0.214456 76.3183 0.447093C76.6296 0.679731 76.8609 1.00765 76.9787 1.38364V1.38364L77.5551 3.21968H79.4464C79.83 3.21963 80.2038 3.34396 80.5143 3.57489C80.8249 3.80583 81.0562 4.13153 81.1753 4.50542C81.2943 4.8793 81.295 5.28221 81.1772 5.65651C81.0594 6.03081 80.8291 6.35732 80.5194 6.58935L78.9748 7.74755L79.5617 9.60878C79.6801 9.98423 79.6792 10.3885 79.5593 10.7634C79.4393 11.1383 79.2065 11.4645 78.8942 11.6952C78.582 11.9258 78.2064 12.049 77.8216 12.047C77.4367 12.045 77.0624 11.9179 76.7525 11.684L75.2475 10.5494L73.7426 11.6845C73.4312 11.9226 73.0535 12.052 72.665 12.0538V12.0538ZM71.0487 4.76257C70.9825 4.76256 70.918 4.78401 70.8644 4.82385C70.8108 4.8637 70.7708 4.91989 70.7502 4.98441C70.7296 5.04893 70.7295 5.11847 70.7497 5.1831C70.77 5.24772 70.8097 5.30412 70.8631 5.34424L72.8476 6.83107C72.9754 6.92686 73.0705 7.06153 73.1193 7.21592C73.1681 7.3703 73.1682 7.53654 73.1195 7.69097L72.3671 10.0825C72.3462 10.1473 72.346 10.2173 72.3665 10.2823C72.3869 10.3473 72.4271 10.404 72.481 10.444C72.535 10.4841 72.6 10.5056 72.6666 10.5053C72.7332 10.505 72.798 10.483 72.8517 10.4425L74.8026 8.97106C74.9318 8.87356 75.0881 8.82097 75.2485 8.82097C75.409 8.82097 75.5653 8.87356 75.6945 8.97106L77.6454 10.4419C77.699 10.4829 77.7639 10.5052 77.8307 10.5056C77.8975 10.5061 77.9627 10.4847 78.0168 10.4445C78.0708 10.4043 78.111 10.3475 78.1314 10.2823C78.1517 10.217 78.1513 10.1469 78.13 10.0819L77.3775 7.69046C77.3289 7.53602 77.329 7.36979 77.3778 7.2154C77.4266 7.06102 77.5217 6.92635 77.6494 6.83055L79.6335 5.34372C79.6868 5.30363 79.7265 5.24728 79.7468 5.18271C79.7671 5.11813 79.767 5.04864 79.7464 4.98414C79.7259 4.91965 79.686 4.86345 79.6325 4.82357C79.579 4.78368 79.5145 4.76215 79.4484 4.76205H77.0033C76.8439 4.76201 76.6887 4.7101 76.56 4.61379C76.4312 4.51747 76.3356 4.38174 76.287 4.22616L75.5485 1.85473C75.5282 1.78983 75.4883 1.73322 75.4346 1.69306C75.3808 1.65289 75.316 1.63126 75.2495 1.63126C75.1831 1.63126 75.1183 1.65289 75.0645 1.69306C75.0108 1.73322 74.9709 1.78983 74.9506 1.85473L74.2066 4.22667C74.158 4.38201 74.0627 4.51756 73.9342 4.61385C73.8058 4.71013 73.6509 4.7622 73.4918 4.76257H71.0487Z" fill="#B0B4B7"/>
</g>
<defs>
<clipPath id="clip0_1_262">
<rect width="12.0396" height="12.3431" fill="white"/>
</clipPath>
<clipPath id="clip1_1_262">
<rect width="12.0396" height="12.3431" fill="white" transform="translate(17.3069)"/>
</clipPath>
<clipPath id="clip2_1_262">
<rect width="12.0396" height="12.3431" fill="white" transform="translate(34.6139)"/>
</clipPath>
<clipPath id="clip3_1_262">
<rect width="12.0396" height="12.3431" fill="white" transform="translate(52.6733)"/>
</clipPath>
<clipPath id="clip4_1_262">
<rect width="12.0396" height="12.3431" fill="white" transform="translate(69.2277)"/>
</clipPath>
</defs>
</svg>
