<svg width="71" height="23" viewBox="0 0 71 23" fill="none" xmlns="http://www.w3.org/2000/svg">
<path d="M15.2036 0.0820312C17.9663 0.0820312 14.1516 1.36637 17.6516 4.80215C19.6863 6.79949 20.7036 9.28215 20.7036 12.2502C20.7036 15.1995 19.733 17.7195 17.7916 19.8102C15.8503 21.8822 13.461 22.9182 10.6236 22.9182C7.78629 22.9182 5.36896 21.8915 3.37163 19.8382C1.39296 17.7848 0.403625 15.3395 0.403625 12.5022C0.403625 10.9528 0.683626 9.50615 1.24363 8.16215C1.80363 6.79949 2.55029 5.66082 3.48363 4.74615C4.41696 3.83149 5.49029 3.11282 6.70363 2.59015C7.91696 2.06749 13.9156 0.0820312 15.2036 0.0820312ZM5.35963 12.3622C5.35963 14.0235 5.89163 15.3768 6.95563 16.4222C8.03829 17.4488 9.24229 17.9622 10.5676 17.9622C11.893 17.9622 13.0876 17.4582 14.1516 16.4502C15.2156 15.4422 15.7476 14.0888 15.7476 12.3902C15.7476 10.6915 15.2063 9.32882 14.1236 8.30215C13.0596 7.27549 11.865 6.76215 10.5396 6.76215C9.21429 6.76215 8.01963 7.28482 6.95563 8.33015C5.89163 9.35682 5.35963 10.7008 5.35963 12.3622Z" fill="black"/>
<path d="M32.7266 1.80615C35.4892 1.80615 37.8879 2.80482 39.9226 4.80215C41.9572 6.79949 42.9746 9.28215 42.9746 12.2502C42.9746 15.1995 42.0039 17.7195 40.0626 19.8102C38.1212 21.8822 35.7319 22.9182 32.8946 22.9182C30.0572 22.9182 27.6399 21.8915 25.6426 19.8382C23.6639 17.7848 22.6746 15.3395 22.6746 12.5022C22.6746 10.9528 22.9546 9.50615 23.5146 8.16215C24.0746 6.79949 24.8212 5.66082 25.7546 4.74615C26.6879 3.83149 27.7612 3.11282 28.9746 2.59015C30.1879 2.06749 31.4386 1.80615 32.7266 1.80615ZM27.6306 12.3622C27.6306 14.0235 28.1626 15.3768 29.2266 16.4222C30.3092 17.4488 31.5132 17.9622 32.8386 17.9622C34.1639 17.9622 35.3586 17.4582 36.4226 16.4502C37.4866 15.4422 38.0186 14.0888 38.0186 12.3902C38.0186 10.6915 37.4772 9.32882 36.3946 8.30215C35.3306 7.27549 34.1359 6.76215 32.8106 6.76215C31.4852 6.76215 30.2906 7.28482 29.2266 8.33015C28.1626 9.35682 27.6306 10.7008 27.6306 12.3622Z" fill="black"/>
<path d="M47.8575 2.03015L53.0375 2.05815C55.7442 2.05815 58.1242 3.03815 60.1775 4.99815C62.2308 6.93949 63.2575 9.33815 63.2575 12.1942C63.2575 15.0315 62.2495 17.4675 60.2335 19.5022C58.2362 21.5368 55.8095 22.5542 52.9535 22.5542H47.8295C46.6908 22.5542 45.9815 22.3208 45.7015 21.8542C45.4775 21.4622 45.3655 20.8648 45.3655 20.0622V4.49415C45.3655 4.04615 45.3748 3.71949 45.3935 3.51415C45.4308 3.30882 45.5242 3.06615 45.6735 2.78615C45.9348 2.28215 46.6628 2.03015 47.8575 2.03015ZM53.0375 17.5982C54.3815 17.5982 55.5948 17.1035 56.6775 16.1142C57.7602 15.1062 58.3015 13.8462 58.3015 12.3342C58.3015 10.8222 57.7695 9.56215 56.7055 8.55415C55.6602 7.52749 54.4282 7.01415 53.0095 7.01415H50.3215V17.5982H53.0375Z" fill="black"/>
<path d="M65.6403 4.52215C65.6403 4.09282 65.6497 3.77549 65.6683 3.57015C65.7057 3.34615 65.799 3.09415 65.9483 2.81415C66.2097 2.31015 66.9377 2.05815 68.1323 2.05815C69.439 2.05815 70.2137 2.40349 70.4563 3.09415C70.5497 3.41149 70.5963 3.89682 70.5963 4.55015V20.1182C70.5963 20.5662 70.5777 20.8928 70.5403 21.0982C70.5217 21.3035 70.4377 21.5462 70.2883 21.8262C70.027 22.3302 69.299 22.5822 68.1043 22.5822C66.7977 22.5822 66.0323 22.2275 65.8083 21.5182C65.6963 21.2195 65.6403 20.7435 65.6403 20.0902V4.52215Z" fill="black"/>
</svg>
