<svg width="71" height="24" viewBox="0 0 71 24" fill="none" xmlns="http://www.w3.org/2000/svg">
<path d="M14.8 0.582031C17.5627 0.582031 13.748 1.86637 17.248 5.30215C19.2827 7.29949 20.3 9.78215 20.3 12.7502C20.3 15.6995 19.3293 18.2195 17.388 20.3102C15.4467 22.3822 13.0573 23.4182 10.22 23.4182C7.38267 23.4182 4.96533 22.3915 2.968 20.3382C0.989334 18.2848 0 15.8395 0 13.0022C0 11.4528 0.28 10.0062 0.84 8.66215C1.4 7.29949 2.14667 6.16082 3.08 5.24615C4.01333 4.33149 5.08667 3.61282 6.3 3.09015C7.51333 2.56749 13.512 0.582031 14.8 0.582031ZM4.956 12.8622C4.956 14.5235 5.488 15.8768 6.552 16.9222C7.63467 17.9488 8.83867 18.4622 10.164 18.4622C11.4893 18.4622 12.684 17.9582 13.748 16.9502C14.812 15.9422 15.344 14.5888 15.344 12.8902C15.344 11.1915 14.8027 9.82882 13.72 8.80215C12.656 7.77549 11.4613 7.26215 10.136 7.26215C8.81067 7.26215 7.616 7.78482 6.552 8.83015C5.488 9.85682 4.956 11.2008 4.956 12.8622Z" fill="black"/>
<path d="M32.3229 2.30615C35.0856 2.30615 37.4843 3.30482 39.5189 5.30215C41.5536 7.29949 42.5709 9.78215 42.5709 12.7502C42.5709 15.6995 41.6003 18.2195 39.6589 20.3102C37.7176 22.3822 35.3283 23.4182 32.4909 23.4182C29.6536 23.4182 27.2363 22.3915 25.2389 20.3382C23.2603 18.2848 22.2709 15.8395 22.2709 13.0022C22.2709 11.4528 22.5509 10.0062 23.1109 8.66215C23.6709 7.29949 24.4176 6.16082 25.3509 5.24615C26.2843 4.33149 27.3576 3.61282 28.5709 3.09015C29.7843 2.56749 31.0349 2.30615 32.3229 2.30615ZM27.2269 12.8622C27.2269 14.5235 27.7589 15.8768 28.8229 16.9222C29.9056 17.9488 31.1096 18.4622 32.4349 18.4622C33.7603 18.4622 34.9549 17.9582 36.0189 16.9502C37.0829 15.9422 37.6149 14.5888 37.6149 12.8902C37.6149 11.1915 37.0736 9.82882 35.9909 8.80215C34.9269 7.77549 33.7323 7.26215 32.4069 7.26215C31.0816 7.26215 29.8869 7.78482 28.8229 8.83015C27.7589 9.85682 27.2269 11.2008 27.2269 12.8622Z" fill="black"/>
<path d="M47.4539 2.53015L52.6339 2.55815C55.3405 2.55815 57.7205 3.53815 59.7739 5.49815C61.8272 7.43949 62.8539 9.83815 62.8539 12.6942C62.8539 15.5315 61.8459 17.9675 59.8299 20.0022C57.8325 22.0368 55.4059 23.0542 52.5499 23.0542H47.4259C46.2872 23.0542 45.5779 22.8208 45.2979 22.3542C45.0739 21.9622 44.9619 21.3648 44.9619 20.5622V4.99415C44.9619 4.54615 44.9712 4.21949 44.9899 4.01415C45.0272 3.80882 45.1205 3.56615 45.2699 3.28615C45.5312 2.78215 46.2592 2.53015 47.4539 2.53015ZM52.6339 18.0982C53.9779 18.0982 55.1912 17.6035 56.2739 16.6142C57.3565 15.6062 57.8979 14.3462 57.8979 12.8342C57.8979 11.3222 57.3659 10.0622 56.3019 9.05415C55.2565 8.02749 54.0245 7.51415 52.6059 7.51415H49.9179V18.0982H52.6339Z" fill="black"/>
<path d="M65.2367 5.02215C65.2367 4.59282 65.246 4.27549 65.2647 4.07015C65.302 3.84615 65.3954 3.59415 65.5447 3.31415C65.806 2.81015 66.5341 2.55815 67.7287 2.55815C69.0354 2.55815 69.8101 2.90349 70.0527 3.59415C70.146 3.91149 70.1927 4.39682 70.1927 5.05015V20.6182C70.1927 21.0662 70.174 21.3928 70.1367 21.5982C70.118 21.8035 70.034 22.0462 69.8847 22.3262C69.6234 22.8302 68.8954 23.0822 67.7007 23.0822C66.3941 23.0822 65.6287 22.7275 65.4047 22.0182C65.2927 21.7195 65.2367 21.2435 65.2367 20.5902V5.02215Z" fill="black"/>
</svg>
